<svg width="21" height="21" viewBox="0 0 21 21" fill="none" xmlns="http://www.w3.org/2000/svg">
<path d="M20.1514 10.1514C20.1514 15.6742 15.6742 20.1514 10.1514 20.1514C4.62852 20.1514 0.151367 15.6742 0.151367 10.1514C0.151367 4.62852 4.62852 0.151367 10.1514 0.151367C15.6742 0.151367 20.1514 4.62852 20.1514 10.1514ZM3.52947 10.1514C3.52947 13.8085 6.4942 16.7733 10.1514 16.7733C13.8085 16.7733 16.7733 13.8085 16.7733 10.1514C16.7733 6.4942 13.8085 3.52947 10.1514 3.52947C6.4942 3.52947 3.52947 6.4942 3.52947 10.1514Z" fill="white" fill-opacity="0.25"/>
<g filter="url(#filter0_f_303_53994)">
<path d="M20.1514 10.1514C20.1514 8.83815 19.8927 7.53779 19.3902 6.32453C18.8876 5.11128 18.151 4.00889 17.2224 3.0803C16.2938 2.15171 15.1915 1.41512 13.9782 0.912572C12.7649 0.410025 11.4646 0.151367 10.1514 0.151367V3.52947C11.021 3.52947 11.8821 3.70075 12.6855 4.03354C13.4889 4.36632 14.2189 4.85408 14.8338 5.46898C15.4487 6.08388 15.9364 6.81387 16.2692 7.61728C16.602 8.42068 16.7733 9.28177 16.7733 10.1514H20.1514Z" fill="url(#paint0_linear_303_53994)"/>
</g>
<g filter="url(#filter1_f_303_53994)">
<path d="M0.151367 10.1514C0.151367 11.4646 0.410025 12.7649 0.912571 13.9782C1.41512 15.1915 2.15171 16.2938 3.0803 17.2224C4.00889 18.151 5.11128 18.8876 6.32453 19.3902C7.53779 19.8927 8.83815 20.1514 10.1514 20.1514V16.7733C9.28177 16.7733 8.42068 16.602 7.61728 16.2692C6.81387 15.9364 6.08388 15.4487 5.46898 14.8338C4.85408 14.2189 4.36632 13.4889 4.03354 12.6855C3.70075 11.8821 3.52947 11.021 3.52947 10.1514H0.151367Z" fill="url(#paint1_linear_303_53994)"/>
</g>
<defs>
<filter id="filter0_f_303_53994" x="9.99985" y="-0.000147969" width="10.303" height="10.303" filterUnits="userSpaceOnUse" color-interpolation-filters="sRGB">
<feFlood flood-opacity="0" result="BackgroundImageFix"/>
<feBlend mode="normal" in="SourceGraphic" in2="BackgroundImageFix" result="shape"/>
<feGaussianBlur stdDeviation="0.0757576" result="effect1_foregroundBlur_303_53994"/>
</filter>
<filter id="filter1_f_303_53994" x="-0.000147969" y="9.99985" width="10.303" height="10.303" filterUnits="userSpaceOnUse" color-interpolation-filters="sRGB">
<feFlood flood-opacity="0" result="BackgroundImageFix"/>
<feBlend mode="normal" in="SourceGraphic" in2="BackgroundImageFix" result="shape"/>
<feGaussianBlur stdDeviation="0.0757576" result="effect1_foregroundBlur_303_53994"/>
</filter>
<linearGradient id="paint0_linear_303_53994" x1="18.9392" y1="10.1514" x2="8.30689" y2="6.28749" gradientUnits="userSpaceOnUse">
<stop offset="0.109955" stop-color="#2CFF82" stop-opacity="0"/>
<stop offset="1" stop-color="#2CFF82"/>
</linearGradient>
<linearGradient id="paint1_linear_303_53994" x1="1.36349" y1="10.1514" x2="11.9958" y2="14.0152" gradientUnits="userSpaceOnUse">
<stop offset="0.109955" stop-color="#2CFF82" stop-opacity="0"/>
<stop offset="1" stop-color="#2CFF82"/>
</linearGradient>
</defs>
</svg>
