<svg width="20" height="20" viewBox="0 0 20 20" fill="none" xmlns="http://www.w3.org/2000/svg">
<path d="M2.08337 9.99967C2.08337 6.26772 2.08337 4.40175 3.24274 3.24237C4.40212 2.08301 6.26809 2.08301 10 2.08301C13.732 2.08301 15.598 2.08301 16.7574 3.24237C17.9167 4.40175 17.9167 6.26772 17.9167 9.99967C17.9167 13.7316 17.9167 15.5976 16.7574 16.757C15.598 17.9163 13.732 17.9163 10 17.9163C6.26809 17.9163 4.40212 17.9163 3.24274 16.757C2.08337 15.5976 2.08337 13.7316 2.08337 9.99967Z" stroke="white" stroke-width="1.25" stroke-linejoin="round"/>
<path d="M13.75 10C13.75 12.0711 12.0711 13.75 10 13.75C7.92893 13.75 6.25 12.0711 6.25 10C6.25 7.92893 7.92893 6.25 10 6.25C12.0711 6.25 13.75 7.92893 13.75 10Z" stroke="white" stroke-width="1.25"/>
<path d="M14.59 5.41699H14.5825" stroke="white" stroke-width="1.66667" stroke-linecap="round" stroke-linejoin="round"/>
</svg>
