<svg width="20" height="20" viewBox="0 0 20 20" fill="none" xmlns="http://www.w3.org/2000/svg">
<path fill-rule="evenodd" clip-rule="evenodd" d="M11.7458 2.22964C10.1812 2.19038 9.01878 2.19038 7.45416 2.22964L7.39428 2.23114C6.18679 2.26141 5.19329 2.28631 4.39252 2.4256C3.54262 2.57343 2.83101 2.86132 2.22829 3.46558C1.62872 4.06668 1.34164 4.76708 1.19621 5.60352C1.05972 6.3885 1.03906 7.35718 1.01407 8.5296L1.01278 8.58991C0.995734 9.38824 0.995743 9.81216 1.01279 10.6105L1.01408 10.6708C1.03908 11.8432 1.05973 12.8119 1.19622 13.5969C1.34165 14.4333 1.62873 15.1337 2.2283 15.7348C2.83102 16.3391 3.54263 16.627 4.39253 16.7748C5.1933 16.9141 6.1868 16.939 7.39428 16.9693L7.45417 16.9708C9.01879 17.01 10.1812 17.01 11.7458 16.9707L11.8057 16.9692C13.0132 16.939 14.0067 16.9141 14.8075 16.7748C15.6574 16.627 16.369 16.3391 16.9717 15.7348C17.5713 15.1337 17.8584 14.4333 18.0038 13.5969C18.1403 12.8119 18.1609 11.8432 18.1859 10.6708L18.1872 10.6105C18.2043 9.81215 18.2043 9.38824 18.1872 8.58991L18.1859 8.52961C18.1609 7.35721 18.1403 6.3885 18.0038 5.60352C17.8584 4.76708 17.5713 4.06668 16.9717 3.46559C16.633 3.12602 16.2599 2.88635 15.8472 2.71531C15.7844 2.68102 15.7171 2.65518 15.647 2.63868C15.3831 2.54566 15.1037 2.47712 14.8075 2.4256C14.0067 2.28632 13.0132 2.26141 11.8057 2.23114L11.7458 2.22964ZM16.5438 7.08044C16.5283 6.75603 16.5206 6.59382 16.4031 6.52907C16.2856 6.46431 16.1412 6.54613 15.8524 6.70977L12.4638 8.62979C11.4241 9.21889 10.5448 9.60018 9.59984 9.60018C8.65488 9.60018 7.77557 9.21889 6.73588 8.62979L3.34756 6.70995C3.05874 6.5463 2.91434 6.46448 2.79686 6.52924C2.67939 6.59399 2.67166 6.7562 2.65618 7.08062C2.63533 7.51783 2.62402 8.02469 2.61123 8.62395C2.59467 9.39959 2.59468 9.80081 2.61124 10.5764C2.63788 11.8244 2.65809 12.6717 2.77145 13.3237C2.87821 13.9376 3.05631 14.3024 3.36097 14.6078C3.66248 14.9101 4.03221 15.0913 4.66684 15.2017C5.33739 15.3183 6.21197 15.3423 7.49433 15.3744C9.03218 15.413 10.1678 15.413 11.7057 15.3744C12.988 15.3423 13.8626 15.3183 14.5332 15.2017C15.1678 15.0913 15.5375 14.9101 15.839 14.6078C16.1437 14.3024 16.3218 13.9376 16.4286 13.3237C16.5419 12.6717 16.5621 11.8244 16.5888 10.5764C16.6053 9.8008 16.6053 9.39959 16.5888 8.62396C16.576 8.02461 16.5647 7.51769 16.5438 7.08044Z" fill="white"/>
</svg>
