<svg width="839" height="1101" viewBox="0 0 839 1101" fill="none" xmlns="http://www.w3.org/2000/svg">
<g filter="url(#filter0_f_870_12611)">
<path fill-rule="evenodd" clip-rule="evenodd" d="M677.154 422.574L677.154 293.017C677.154 221.45 619.467 162.657 548.277 161.667C477.091 160.678 419.404 217.867 419.404 289.434C419.404 361 361.717 418.189 290.527 417.2C219.342 416.21 161.655 473.399 161.655 544.966C161.655 616.533 219.342 675.325 290.527 676.315C361.717 677.304 419.404 736.097 419.404 807.664C419.404 879.231 477.091 938.023 548.277 939.013C619.467 940.168 677.154 882.979 677.154 811.412L677.154 422.574Z" fill="#8266FF"/>
</g>
<defs>
<filter id="filter0_f_870_12611" x="-1.52588e-05" y="-1.52588e-05" width="838.809" height="1100.69" filterUnits="userSpaceOnUse" color-interpolation-filters="sRGB">
<feFlood flood-opacity="0" result="BackgroundImageFix"/>
<feBlend mode="normal" in="SourceGraphic" in2="BackgroundImageFix" result="shape"/>
<feGaussianBlur stdDeviation="80.8274" result="effect1_foregroundBlur_870_12611"/>
</filter>
</defs>
</svg>
