<svg width="32" height="32" viewBox="0 0 32 32" fill="none" xmlns="http://www.w3.org/2000/svg">
<path d="M18.8814 12.4833L15.2686 10.1313C15.1369 10.0455 14.9846 10 14.8293 10C14.3714 10 14.0004 10.3866 14.0004 10.8635V15.8032C14.0004 16.2801 14.3714 16.6667 14.8293 16.6667C14.9846 16.6667 15.1369 16.6212 15.2686 16.5355L18.8814 14.1833C19.1628 14.0001 19.3337 13.6789 19.3337 13.3333C19.3337 12.9877 19.1628 12.6665 18.8814 12.4833Z" stroke="white" stroke-width="2" stroke-linecap="round" stroke-linejoin="round"/>
<path d="M27.3337 21.9998V11.3332C27.3337 8.19048 27.3337 6.61913 26.3573 5.64281C25.381 4.6665 23.8097 4.6665 20.667 4.6665H11.3337C8.19097 4.6665 6.61961 4.6665 5.6433 5.64281C4.66699 6.61913 4.66699 8.19048 4.66699 11.3332V21.9998" stroke="white" stroke-width="2" stroke-linecap="round" stroke-linejoin="round"/>
<path d="M29.3127 27.3333H2.68809C2.1775 27.3333 1.84542 26.8117 2.07377 26.3685L4.66703 22H27.3337L29.9269 26.3685C30.1553 26.8117 29.8232 27.3333 29.3127 27.3333Z" stroke="white" stroke-width="2" stroke-linecap="round" stroke-linejoin="round"/>
</svg>
