<svg width="32" height="32" viewBox="0 0 32 32" fill="none" xmlns="http://www.w3.org/2000/svg">
<path d="M10.0003 15.9998H18.0003M10.0003 10.6665H14.0003" stroke="white" stroke-width="2" stroke-linecap="round" stroke-linejoin="round"/>
<path d="M11.3337 26.6665C12.7342 27.8261 14.4197 28.5649 16.3517 28.6916C17.8739 28.7914 19.4631 28.7913 20.9823 28.6916C21.5054 28.6573 22.0757 28.5341 22.5667 28.3345C23.113 28.1125 23.3863 28.0014 23.5253 28.0182C23.6641 28.035 23.8655 28.1817 24.2685 28.4749C24.9789 28.9918 25.8738 29.3632 27.201 29.3313C27.8721 29.3152 28.2077 29.307 28.3578 29.0544C28.5081 28.8016 28.321 28.4517 27.9467 27.752C27.4278 26.7814 27.099 25.6704 27.5973 24.7801C28.4554 23.5085 29.1842 22.0026 29.2907 20.3762C29.3479 19.5024 29.3479 18.5973 29.2907 17.7234C29.2198 16.6397 28.9567 15.6096 28.5353 14.6665" stroke="white" stroke-width="2" stroke-linecap="round" stroke-linejoin="round"/>
<path d="M16.4603 23.3156C21.2011 23.0033 24.9774 19.209 25.2881 14.4457C25.3489 13.5136 25.3489 12.5483 25.2881 11.6161C24.9774 6.85276 21.2011 3.05852 16.4603 2.7463C14.843 2.6398 13.1544 2.64001 11.5403 2.7463C6.79957 3.05852 3.02333 6.85276 2.71259 11.6161C2.65179 12.5483 2.65179 13.5136 2.71259 14.4457C2.82577 16.1806 3.60022 17.7869 4.51195 19.1433C5.04134 20.0928 4.69197 21.278 4.14057 22.3132C3.74299 23.0596 3.54421 23.4328 3.70382 23.7024C3.86342 23.972 4.21995 23.9806 4.93301 23.9978C6.34315 24.0318 7.29403 23.6357 8.04883 23.0844C8.47691 22.7716 8.69097 22.6152 8.83849 22.5973C8.98601 22.5793 9.27632 22.6977 9.85687 22.9346C10.3786 23.1476 10.9845 23.2789 11.5403 23.3156C13.1544 23.4218 14.843 23.422 16.4603 23.3156Z" stroke="white" stroke-width="2" stroke-linejoin="round"/>
</svg>
