<svg width="30" height="30" viewBox="0 0 30 30" fill="none" xmlns="http://www.w3.org/2000/svg">
<path d="M13.4437 6.11133H21.9993" stroke="white" stroke-width="1.83333" stroke-linecap="round" stroke-linejoin="round"/>
<path d="M12.2223 12.2227L17.7223 17.7227" stroke="white" stroke-width="1.83333" stroke-linecap="round" stroke-linejoin="round"/>
<path d="M6.11035 13.4443V21.9999" stroke="white" stroke-width="1.83333" stroke-linecap="round" stroke-linejoin="round"/>
<path d="M7.87582 13.3085C10.8759 13.3085 13.3079 10.8765 13.3079 7.87643C13.3079 4.87637 10.8759 2.44434 7.87582 2.44434C4.87576 2.44434 2.44373 4.87637 2.44373 7.87643C2.44373 10.8765 4.87576 13.3085 7.87582 13.3085Z" stroke="white" stroke-width="1.83333"/>
<path d="M6.11083 26.8889C7.46086 26.8889 8.55527 25.7945 8.55527 24.4444C8.55527 23.0944 7.46086 22 6.11083 22C4.7608 22 3.66638 23.0944 3.66638 24.4444C3.66638 25.7945 4.7608 26.8889 6.11083 26.8889Z" stroke="white" stroke-width="1.83333"/>
<path d="M19.5548 22.0002C20.9048 22.0002 21.9992 20.9058 21.9992 19.5558C21.9992 18.2057 20.9048 17.1113 19.5548 17.1113C18.2048 17.1113 17.1104 18.2057 17.1104 19.5558C17.1104 20.9058 18.2048 22.0002 19.5548 22.0002Z" stroke="white" stroke-width="1.83333"/>
<path d="M24.4441 8.55588C25.7941 8.55588 26.8885 7.46147 26.8885 6.11144C26.8885 4.76141 25.7941 3.66699 24.4441 3.66699C23.094 3.66699 21.9996 4.76141 21.9996 6.11144C21.9996 7.46147 23.094 8.55588 24.4441 8.55588Z" stroke="white" stroke-width="1.83333"/>
</svg>
