<svg width="23" height="13" viewBox="0 0 23 13" fill="none" xmlns="http://www.w3.org/2000/svg">
<path d="M13.6765 13H1.82353C1.3399 13 0.876077 12.8043 0.534099 12.4561C0.192121 12.1078 0 11.6354 0 11.1429V1.85714C0 1.3646 0.192121 0.892227 0.534099 0.543945C0.876077 0.195663 1.3399 0 1.82353 0H13.6765C14.1601 0 14.6239 0.195663 14.9659 0.543945C15.3079 0.892227 15.5 1.3646 15.5 1.85714V11.1429C15.5 11.6354 15.3079 12.1078 14.9659 12.4561C14.6239 12.8043 14.1601 13 13.6765 13Z" fill="white"/>
<path d="M17.5 3.80908V9.191L21.5746 11.8497C21.7127 11.9398 21.8732 11.9916 22.0391 11.9994C22.2049 12.0073 22.3698 11.9709 22.5162 11.8942C22.6625 11.8175 22.7849 11.7033 22.8701 11.5639C22.9553 11.4244 23.0002 11.2649 23 11.1025V1.89761C23 1.73522 22.955 1.57586 22.8697 1.43655C22.7844 1.29724 22.6621 1.18319 22.5158 1.10658C22.3695 1.02997 22.2046 0.993666 22.0389 1.00154C21.8731 1.00942 21.7126 1.06119 21.5746 1.15132L17.5 3.80908Z" fill="white"/>
</svg>
